<svg width="24" height="24" viewBox="0 0 24 24" fill="none" xmlns="http://www.w3.org/2000/svg">
<path d="M12.0002 15.6873C14.0368 15.6873 15.6877 14.0364 15.6877 11.9998C15.6877 9.96323 14.0368 8.31226 12.0002 8.31226C9.96362 8.31226 8.31265 9.96323 8.31265 11.9998C8.31265 14.0364 9.96362 15.6873 12.0002 15.6873Z" stroke="#1C1C1C" stroke-width="1.5" stroke-linecap="square"/>
<path d="M18.8038 18.7156L18.3659 15.6753L21.2177 14.5345V9.46567L18.3669 8.32522L18.8049 5.28442L14.4152 2.75L12.0006 4.64979L9.5861 2.75L5.19636 5.28442L5.63427 8.32471L2.78223 9.46567V14.5345L5.63527 15.6759L5.19744 18.7156L9.58718 21.25L12.0006 19.3511L14.4141 21.25L18.8038 18.7156Z" stroke="#1C1C1C" stroke-width="1.5" stroke-linecap="square"/>
</svg>
